<svg width="558" height="558" viewBox="0 0 558 558" fill="none" xmlns="http://www.w3.org/2000/svg">
<path d="M442.8 416.25H132.9V454.95H442.8V416.25Z" stroke="#00FF9F" stroke-width="12.915" stroke-linejoin="round"/>
<path d="M133.35 376.8V121.2" stroke="#00FF9F" stroke-width="12.915" stroke-linejoin="round"/>
<path d="M133.35 121.2C144.037 121.2 152.7 112.537 152.7 101.85C152.7 91.1633 144.037 82.5 133.35 82.5C122.663 82.5 114 91.1633 114 101.85C114 112.537 122.663 121.2 133.35 121.2Z" stroke="#00FF9F" stroke-width="12.915" stroke-linejoin="round"/>
<path d="M345.9 157.35L281.4 280.05" stroke="#00FF9F" stroke-width="12.915" stroke-linecap="round" stroke-linejoin="round"/>
<path d="M442.8 318.75H287.85" stroke="#00FF9F" stroke-width="12.915" stroke-linejoin="round"/>
<path d="M287.85 318.75C298.537 318.75 307.2 310.087 307.2 299.4C307.2 288.713 298.537 280.05 287.85 280.05C277.163 280.05 268.5 288.713 268.5 299.4C268.5 310.087 277.163 318.75 287.85 318.75Z" stroke="#00FF9F" stroke-width="12.915" stroke-linejoin="round"/>
<path d="M132.9 376.8H442.8V299.25C442.8 213.6 373.5 144.3 287.85 144.3C202.2 144.3 132.9 213.75 132.9 299.4V376.8Z" stroke="#00FF9F" stroke-width="12.915" stroke-linejoin="round"/>
<path d="M160.8 381.9V416.25" stroke="#00FF9F" stroke-width="12.915" stroke-linejoin="round"/>
<path d="M414.9 381.9V416.25" stroke="#00FF9F" stroke-width="12.915" stroke-linejoin="round"/>
</svg>
